<svg width="136" height="24" viewBox="0 0 136 24" fill="none" xmlns="http://www.w3.org/2000/svg">
<path d="M34.6733 18.931L38.1484 14.7706C40.1026 16.2668 42.494 17.0719 44.9506 17.0606C46.1177 17.0606 46.6174 16.7533 46.6174 16.2213V16.1684C46.6174 15.61 46.0092 15.3027 43.9248 14.883C39.5621 13.9908 35.732 12.7318 35.732 8.60448V8.54831C35.732 4.83408 38.6185 1.95918 43.9807 1.95918C47.7287 1.95918 50.5067 2.8547 52.7588 4.63911L49.5895 9.05059C47.8886 7.82116 45.8521 7.14847 43.7572 7.12408C42.7873 7.12408 42.3402 7.45452 42.3402 7.93367V7.97663C42.3402 8.50865 42.8695 8.8424 44.9243 9.23233C49.8952 10.1543 53.2289 11.6049 53.2289 15.5439V15.6001C53.2289 19.7042 49.8689 22.209 44.6481 22.209C40.7029 22.2255 37.1457 21.1086 34.6733 18.931Z" fill="white"/>
<path d="M54.7285 2.31944H61.2282V9.62894L66.7548 2.31284H74.3164L67.534 10.8053L74.4381 21.8621H66.6989L62.8951 15.6662L61.2282 17.7018V21.8555H54.7285V2.31944Z" fill="white"/>
<path d="M75.6147 2.31941H82.1145V21.8555H75.6147V2.31941Z" fill="white"/>
<path d="M83.8374 2.31941H90.3371V16.2775H99.4768V21.8555H83.8374V2.31941Z" fill="white"/>
<path d="M100.891 2.31941H107.39V16.2775H116.53V21.8555H100.891V2.31941Z" fill="white"/>
<path d="M116.885 18.931L120.36 14.7706C122.314 16.2668 124.705 17.0719 127.162 17.0606C128.329 17.0606 128.829 16.7533 128.829 16.2213V16.1684C128.829 15.61 128.221 15.3027 126.136 14.883C121.777 13.9908 117.94 12.7318 117.94 8.60448V8.54831C117.94 4.83408 120.83 1.95918 126.192 1.95918C129.94 1.95918 132.718 2.8547 134.97 4.63911L131.801 9.05059C130.1 7.82116 128.063 7.14847 125.969 7.12408C124.982 7.12408 124.552 7.45452 124.552 7.93367V7.97663C124.552 8.50865 125.081 8.8424 127.136 9.23233C132.107 10.1543 135.44 11.6049 135.44 15.5439V15.6001C135.44 19.7042 132.08 22.209 126.86 22.209C122.918 22.2255 119.36 21.1086 116.885 18.931Z" fill="white"/>
<path d="M0 0V24H24V0H0ZM7.5 9.55781L11.7621 12L7.5 14.4653V9.55781ZM7.5 18.6377V16.2351L14.8342 12L7.5 7.7649V5.37874L18.9677 12L7.5 18.6377Z" fill="url(#paint0_linear_1768_16257)"/>
<defs>
<linearGradient id="paint0_linear_1768_16257" x1="34.2283" y1="35.6045" x2="-24.1827" y2="-26.4403" gradientUnits="userSpaceOnUse">
<stop offset="0.03" stop-color="#F05A28"/>
<stop offset="0.93" stop-color="#EB008B"/>
</linearGradient>
</defs>
</svg>
